<?xml version="1.0" encoding="UTF-8" standalone="no"?><svg xmlns="http://www.w3.org/2000/svg" xmlns:xlink="http://www.w3.org/1999/xlink" contentScriptType="application/ecmascript" contentStyleType="text/css" height="460px" preserveAspectRatio="none" style="width:607px;height:460px;" version="1.1" viewBox="0 0 607 460" width="607px" zoomAndPan="magnify"><defs><filter height="300%" id="f4pvv03r1z56j" width="300%" x="-1" y="-1"><feGaussianBlur result="blurOut" stdDeviation="2.0"/><feColorMatrix in="blurOut" result="blurOut2" type="matrix" values="0 0 0 0 0 0 0 0 0 0 0 0 0 0 0 0 0 0 .4 0"/><feOffset dx="4.0" dy="4.0" in="blurOut2" result="blurOut3"/><feBlend in="SourceGraphic" in2="blurOut3" mode="normal"/></filter></defs><g><!--MD5=[7421f545a0d8420c5bec41e74b387d9c]
class Employee--><rect fill="#FEFECE" filter="url(#f4pvv03r1z56j)" height="248.0703" id="Employee" style="stroke: #A80036; stroke-width: 1.5;" width="243" x="40" y="201"/><ellipse cx="127.25" cy="217" fill="#ADD1B2" rx="11" ry="11" style="stroke: #A80036; stroke-width: 1.0;"/><path d="M130.2188,222.6406 Q129.6406,222.9375 129,223.0781 Q128.3594,223.2344 127.6563,223.2344 Q125.1563,223.2344 123.8281,221.5938 Q122.5156,219.9375 122.5156,216.8125 Q122.5156,213.6875 123.8281,212.0313 Q125.1563,210.375 127.6563,210.375 Q128.3594,210.375 129,210.5313 Q129.6563,210.6875 130.2188,210.9844 L130.2188,213.7031 Q129.5938,213.125 129,212.8594 Q128.4063,212.5781 127.7813,212.5781 Q126.4375,212.5781 125.75,213.6563 Q125.0625,214.7188 125.0625,216.8125 Q125.0625,218.9063 125.75,219.9844 Q126.4375,221.0469 127.7813,221.0469 Q128.4063,221.0469 129,220.7813 Q129.5938,220.5 130.2188,219.9219 L130.2188,222.6406 Z "/><text fill="#000000" font-family="sans-serif" font-size="12" lengthAdjust="spacingAndGlyphs" textLength="60" x="147.75" y="221.1543">Employee</text><line style="stroke: #A80036; stroke-width: 1.5;" x1="41" x2="282" y1="233" y2="233"/><text fill="#000000" font-family="sans-serif" font-size="11" lengthAdjust="spacingAndGlyphs" textLength="78" x="46" y="247.2104">-name: String</text><text fill="#000000" font-family="sans-serif" font-size="11" lengthAdjust="spacingAndGlyphs" textLength="36" x="46" y="260.0151">-id: int</text><text fill="#000000" font-family="sans-serif" font-size="11" lengthAdjust="spacingAndGlyphs" textLength="67" x="46" y="272.8198">-title: String</text><text fill="#000000" font-family="sans-serif" font-size="11" lengthAdjust="spacingAndGlyphs" textLength="61" x="46" y="285.6245">-salary: int</text><text fill="#000000" font-family="sans-serif" font-size="11" lengthAdjust="spacingAndGlyphs" textLength="89" x="46" y="298.4292">-observer: View</text><line style="stroke: #A80036; stroke-width: 1.0;" x1="41" x2="282" y1="305.0234" y2="305.0234"/><text fill="#000000" font-family="sans-serif" font-size="11" lengthAdjust="spacingAndGlyphs" textLength="110" x="46" y="319.2339">+getName(): String</text><text fill="#000000" font-family="sans-serif" font-size="11" lengthAdjust="spacingAndGlyphs" textLength="197" x="46" y="332.0386">+setName(newName: String): void</text><text fill="#000000" font-family="sans-serif" font-size="11" lengthAdjust="spacingAndGlyphs" textLength="87" x="46" y="344.8433">+getId(): String</text><text fill="#000000" font-family="sans-serif" font-size="11" lengthAdjust="spacingAndGlyphs" textLength="131" x="46" y="357.6479">+setId(newId: int): void</text><text fill="#000000" font-family="sans-serif" font-size="11" lengthAdjust="spacingAndGlyphs" textLength="101" x="46" y="370.4526">+getTitle(): String</text><text fill="#000000" font-family="sans-serif" font-size="11" lengthAdjust="spacingAndGlyphs" textLength="179" x="46" y="383.2573">+setTitle(newTitle: String): void</text><text fill="#000000" font-family="sans-serif" font-size="11" lengthAdjust="spacingAndGlyphs" textLength="93" x="46" y="396.062">+getSalary(): int</text><text fill="#000000" font-family="sans-serif" font-size="11" lengthAdjust="spacingAndGlyphs" textLength="183" x="46" y="408.8667">+setSalary(newSalary: int): void</text><line style="stroke: #A80036; stroke-width: 1.0; stroke-dasharray: 1.0,2.0;" x1="41" x2="282" y1="415.4609" y2="415.4609"/><text fill="#000000" font-family="sans-serif" font-size="11" lengthAdjust="spacingAndGlyphs" textLength="231" x="46" y="429.6714">+registerObserver(observer: View): void</text><text fill="#000000" font-family="sans-serif" font-size="11" lengthAdjust="spacingAndGlyphs" textLength="127" x="46" y="442.4761">-notifyObserver(): void</text><!--MD5=[c045e12321b83266d36d22b9096c24ea]
class View--><rect fill="#FEFECE" filter="url(#f4pvv03r1z56j)" height="60.8047" id="View" style="stroke: #A80036; stroke-width: 1.5;" width="245" x="318" y="294.5"/><ellipse cx="422.25" cy="310.5" fill="#ADD1B2" rx="11" ry="11" style="stroke: #A80036; stroke-width: 1.0;"/><path d="M425.2188,316.1406 Q424.6406,316.4375 424,316.5781 Q423.3594,316.7344 422.6563,316.7344 Q420.1563,316.7344 418.8281,315.0938 Q417.5156,313.4375 417.5156,310.3125 Q417.5156,307.1875 418.8281,305.5313 Q420.1563,303.875 422.6563,303.875 Q423.3594,303.875 424,304.0313 Q424.6563,304.1875 425.2188,304.4844 L425.2188,307.2031 Q424.5938,306.625 424,306.3594 Q423.4063,306.0781 422.7813,306.0781 Q421.4375,306.0781 420.75,307.1563 Q420.0625,308.2188 420.0625,310.3125 Q420.0625,312.4063 420.75,313.4844 Q421.4375,314.5469 422.7813,314.5469 Q423.4063,314.5469 424,314.2813 Q424.5938,314 425.2188,313.4219 L425.2188,316.1406 Z "/><text fill="#000000" font-family="sans-serif" font-size="12" lengthAdjust="spacingAndGlyphs" textLength="28" x="442.75" y="314.6543">View</text><line style="stroke: #A80036; stroke-width: 1.5;" x1="319" x2="562" y1="326.5" y2="326.5"/><line style="stroke: #A80036; stroke-width: 1.5;" x1="319" x2="562" y1="334.5" y2="334.5"/><text fill="#000000" font-family="sans-serif" font-size="11" lengthAdjust="spacingAndGlyphs" textLength="233" x="324" y="348.7104">+onModelUpdate(model: Employee): void</text><!--MD5=[1d7ba1c7002d54515419844fbd155368]
class Controller--><rect fill="#FEFECE" filter="url(#f4pvv03r1z56j)" height="48" id="Controller" style="stroke: #A80036; stroke-width: 1.5;" width="93" x="254" y="93"/><ellipse cx="269" cy="109" fill="#ADD1B2" rx="11" ry="11" style="stroke: #A80036; stroke-width: 1.0;"/><path d="M271.9688,114.6406 Q271.3906,114.9375 270.75,115.0781 Q270.1094,115.2344 269.4063,115.2344 Q266.9063,115.2344 265.5781,113.5938 Q264.2656,111.9375 264.2656,108.8125 Q264.2656,105.6875 265.5781,104.0313 Q266.9063,102.375 269.4063,102.375 Q270.1094,102.375 270.75,102.5313 Q271.4063,102.6875 271.9688,102.9844 L271.9688,105.7031 Q271.3438,105.125 270.75,104.8594 Q270.1563,104.5781 269.5313,104.5781 Q268.1875,104.5781 267.5,105.6563 Q266.8125,106.7188 266.8125,108.8125 Q266.8125,110.9063 267.5,111.9844 Q268.1875,113.0469 269.5313,113.0469 Q270.1563,113.0469 270.75,112.7813 Q271.3438,112.5 271.9688,111.9219 L271.9688,114.6406 Z "/><text fill="#000000" font-family="sans-serif" font-size="12" lengthAdjust="spacingAndGlyphs" textLength="61" x="283" y="113.1543">Controller</text><line style="stroke: #A80036; stroke-width: 1.5;" x1="255" x2="346" y1="125" y2="125"/><line style="stroke: #A80036; stroke-width: 1.5;" x1="255" x2="346" y1="133" y2="133"/><path d="M6,8 L6,33.1328 A0,0 0 0 0 6,33.1328 L296.5,33.1328 L300.5,92.8824 L304.5,33.1328 L595,33.1328 A0,0 0 0 0 595,33.1328 L595,18 L585,8 L6,8 A0,0 0 0 0 6,8 " fill="#FBFB77" filter="url(#f4pvv03r1z56j)" style="stroke: #A80036; stroke-width: 1.0;"/><path d="M585,8 L585,18 L595,18 L585,8 " fill="#FBFB77" style="stroke: #A80036; stroke-width: 1.0;"/><text fill="#000000" font-family="sans-serif" font-size="13" lengthAdjust="spacingAndGlyphs" textLength="568" x="12" y="25.0669">The assignment does not mention any actions from the view the controller should handle</text><!--MD5=[5cae81394874370ce28652fa50bd752c]
reverse link Controller to Employee--><path d="M268.5,154.2673 C268.5,154.2673 268.5,200.6089 268.5,200.6089 " fill="none" id="Controller&lt;-Employee" style="stroke: #A80036; stroke-width: 1.0;"/><polygon fill="#FFFFFF" points="268.5,141.2673,264.5,147.2673,268.5,153.2673,272.5,147.2673,268.5,141.2673" style="stroke: #A80036; stroke-width: 1.0;"/><!--MD5=[7e1a56604c17615e4da439b139121f5d]
reverse link Controller to View--><path d="M332.5,154.2673 C332.5,154.2673 332.5,294.4983 332.5,294.4983 " fill="none" id="Controller&lt;-View" style="stroke: #A80036; stroke-width: 1.0;"/><polygon fill="#FFFFFF" points="332.5,141.2673,328.5,147.2673,332.5,153.2673,336.5,147.2673,332.5,141.2673" style="stroke: #A80036; stroke-width: 1.0;"/><!--MD5=[6901a631cd5d124129307f5cd2d4e795]
link Employee to View--><path d="M283.0618,325 C283.0618,325 312.6,325 312.6,325 " fill="none" id="Employee-&gt;View" style="stroke: #A80036; stroke-width: 1.0;"/><polygon fill="#A80036" points="317.6,325,308.6,321,312.6,325,308.6,329,317.6,325" style="stroke: #A80036; stroke-width: 1.0;"/><!--MD5=[ff94ccf43926660e81a80b50d4056d77]
@startuml MVC
skinparam classAttributeIconSize 0
skinparam linetype ortho
class Employee {
    - name: String
    - id: int
    - title: String
    - salary: int
    - observer: View
    - -
    + getName(): String
    + setName(newName: String): void
    + getId(): String
    + setId(newId: int): void
    + getTitle(): String
    + setTitle(newTitle: String): void
    + getSalary(): int
    + setSalary(newSalary: int): void
    ..
    + registerObserver(observer: View): void
    - notifyObserver(): void
}

    class View {
        + onModelUpdate(model: Employee): void
    }

class Controller {

}
note top: The assignment does not mention any actions from the view the controller should handle


Controller o- - Employee
Controller o- - View
Employee -right-> View
@enduml

PlantUML version 1.2020.06(Sun Apr 05 12:38:32 UTC 2020)
(GPL source distribution)
Java Runtime: OpenJDK Runtime Environment
JVM: OpenJDK 64-Bit Server VM
Java Version: 1.8.0_242-b08
Operating System: Linux
Default Encoding: UTF-8
Language: en
Country: null
--></g></svg>